<?xml version="1.0" encoding="utf-8"?>
<!-- Generator: Adobe Illustrator 24.0.2, SVG Export Plug-In . SVG Version: 6.00 Build 0)  -->
<svg version="1.1" id="Capa_1" xmlns="http://www.w3.org/2000/svg" xmlns:xlink="http://www.w3.org/1999/xlink" x="0px" y="0px"
	 viewBox="0 0 1280 1237" style="enable-background:new 0 0 1280 1237;" xml:space="preserve">
<style type="text/css">
	.st0{fill:#FFFFFF;}
</style>
<path class="st0" d="M319.8,238.8L0.1,477.5L0,857.2V1237h640h640V857.2l-0.1-379.7L960.3,239C784.6,107.8,640.5,0.4,640.1,0.3
	C639.8,0.2,495.6,107.6,319.8,238.8z M282.9,676c97.3,73.4,177,133.9,177,134.5c0,0.5-76.6,68.1-170.2,150.2
	c-93.6,82-187.4,164.3-208.5,182.8L43,1177V836V495l31.4,23.8C91.7,531.8,185.5,602.6,282.9,676z M1230.9,513
	c3,43.9,4.9,201.6,5.8,462.4l0.6,201.9l-35.9-30.9c-19.8-17-115.7-99.5-213.2-183.3c-99.7-85.8-176.9-152.8-176.4-153.3
	s94.4-71.5,208.8-157.8c140.5-106.1,208.1-156.5,208.6-155.7C1229.5,497,1230.3,504.5,1230.9,513z M921.7,1011l280.9,191.5
	l-281.3,0.3c-154.7,0.1-407.9,0.1-562.6,0l-281.3-0.3l281-191.7C513,905.4,639.8,819.2,640.2,819.3
	C640.5,819.4,767.2,905.7,921.7,1011z"/>
</svg>
