<?xml version="1.0" encoding="utf-8"?>
<!-- Generator: Adobe Illustrator 24.0.2, SVG Export Plug-In . SVG Version: 6.00 Build 0)  -->
<svg version="1.1" id="Capa_1" xmlns="http://www.w3.org/2000/svg" xmlns:xlink="http://www.w3.org/1999/xlink" x="0px" y="0px"
	 viewBox="0 0 383.9 383.9" style="enable-background:new 0 0 383.9 383.9;" xml:space="preserve">
<style type="text/css">
	.st0{fill:#FFFFFF;}
</style>
<path class="st0" d="M353.2,0H32.8C15.3,0,0,12.6,0,29.9V351c0,17.4,15.3,32.9,32.8,32.9h320.3c17.6,0,30.8-15.6,30.8-32.9V29.9
	C384,12.6,370.7,0,353.2,0z M119,320H64V149h55V320z M93.4,123H93c-17.6,0-29-13.1-29-29.5C64,76.8,75.7,64,93.7,64
	s29,12.7,29.4,29.5C123.1,109.9,111.7,123,93.4,123z M320,320h-55v-93.5c0-22.4-8-37.7-27.9-37.7c-15.2,0-24.2,10.3-28.2,20.3
	c-1.5,3.6-1.9,8.5-1.9,13.5V320h-55V149h55v23.8c8-11.4,20.5-27.8,49.6-27.8c36.1,0,63.4,23.8,63.4,75.1V320z"/>
</svg>
