<?xml version="1.0" encoding="utf-8"?>
<!-- Generator: Adobe Illustrator 24.0.2, SVG Export Plug-In . SVG Version: 6.00 Build 0)  -->
<svg version="1.1" id="Capa_1" xmlns="http://www.w3.org/2000/svg" xmlns:xlink="http://www.w3.org/1999/xlink" x="0px" y="0px"
	 viewBox="0 0 645.7 657.5" style="enable-background:new 0 0 645.7 657.5;" xml:space="preserve">
<style type="text/css">
	.st0{fill:#FFFFFF;}
</style>
<path class="st0" d="M307.5,0.3c-54,3.5-110.7,22.9-155.5,53.2c-47.3,32-84.8,75.2-109.1,125.6c-13.3,27.6-21.6,53.6-27.3,85.6
	c-4.3,24-5.2,60.2-2.2,88c4,37.4,17.7,82.2,36.2,118.8l5.3,10.3l-12.3,36.7c-6.8,20.2-19.1,57-27.4,81.8C6.8,625.2,0,646.2,0,647.2
	c0,0.9,1.3,2.2,2.9,2.8c2.6,1,2.9,1.4,2.4,4.5c-0.6,3.2-0.5,3.4,1.8,2.7c4.1-1.3,93.6-29.8,131.4-42c19.8-6.3,36.8-11.5,37.8-11.5
	c0.9,0,5.2,1.7,9.5,3.9c36.6,18.4,75.6,29.4,117.1,33.2c16.4,1.4,49.8,0.7,65.9-1.6c95.4-13.2,176.6-65.9,226.6-146.8
	c16.3-26.4,31.8-63.2,40.1-95.2c7.9-30.7,11.7-68.8,9.6-98.2c-5.4-78.1-35.6-147.3-88.1-201.7C506.1,44.6,441.3,12,367.5,2.1
	C356.7,0.7,319.3-0.5,307.5,0.3z M346.6,68.7c35.7,2.9,65,10.8,95.9,25.9c41.9,20.6,77,51.4,103,90.6c20,30.1,32.3,62.5,37.1,97.9
	c2.3,16.8,2.3,50.8,0,68C566.3,472,466.5,565.2,345.4,572.8c-42.7,2.6-82.4-4.4-121.2-21.4c-10.7-4.7-28.4-14.3-33.9-18.3
	c-1.7-1.3-3.9-2.4-4.9-2.4c-0.9,0-22.2,6.5-47.2,14.5s-45.6,14.5-45.7,14.3c-0.2-0.2,6.2-19.7,14.1-43.3
	c7.9-23.7,14.4-44.2,14.4-45.8c0-1.6-1.8-5.3-4.4-9c-41.8-59.9-55.4-142.6-35.1-212.7c4.5-15.2,8.2-24.5,15.5-39
	c20-39.1,50.5-73.2,88-98.2C232.3,79.9,291.4,64.3,346.6,68.7z"/>
<path class="st0" d="M214.3,161.1c-2.3,0.7-5.6,2.3-7.5,3.4c-5.1,3.2-19.9,19-24.5,26.2c-14.7,22.9-18,53.4-9.2,83.2
	c6.7,22.5,14.9,39.7,29.9,62.9c19,29.2,31.3,45,51,65.3c29.6,30.5,54.5,47.6,92.7,63.5c28.2,11.8,49,18.5,60.7,19.7
	c8.1,0.8,25.8-2,36.2-5.8c14.4-5.2,30.9-16.8,37.3-26.2c6.4-9.6,13-31.3,13.8-45.7l0.6-9.5l-3.1-3.6c-2.2-2.4-11.2-7.8-29.4-17.6
	c-43.2-23.2-48.7-25.4-55.5-21.8c-1.7,0.8-8.1,7.3-14.1,14.3c-17.8,20.7-21.5,24.3-24.5,24.3c-3.8,0-28.7-12.7-40.3-20.5
	c-13.5-9.2-22.3-16.6-33.4-28.1c-13.2-13.7-27.5-33.3-35.5-48.6l-1.8-3.6l7.2-7.9c9.5-10.1,13.4-16.2,17.2-26.8
	c3.9-10.8,3.7-14.1-2-29c-5.1-13.3-9.2-24.3-16.3-43.4c-5.8-15.7-10.1-22.1-16.1-24C242,160.1,219,159.6,214.3,161.1z"/>
</svg>
